<svg width="171" height="80" viewBox="0 0 171 80" fill="none" xmlns="http://www.w3.org/2000/svg">
<g filter="url(#filter0_d_3429_673)">
<path d="M121.876 28.7426L133.685 3.33541L151.658 33.8538C163.346 49.5095 145.999 61.7474 139.64 59.6344L121.876 28.7426Z" fill="url(#paint0_linear_3429_673)" shape-rendering="crispEdges"/>
<path d="M121.876 28.7426L133.685 3.33541L151.658 33.8538C163.346 49.5095 145.999 61.7474 139.64 59.6344L121.876 28.7426Z" fill="#7978B8" fill-opacity="0.2" shape-rendering="crispEdges"/>
</g>
<g filter="url(#filter1_d_3429_673)">
<path d="M36.0585 2.91894L50.8852 28.4536C52.4637 26.3021 55.3143 22.4165 53.3839 15.6299C50.4607 5.35306 40.6156 2.87391 36.0585 2.91894Z" fill="url(#paint1_linear_3429_673)" shape-rendering="crispEdges"/>
<path d="M36.0585 2.91894L50.8852 28.4536C52.4637 26.3021 55.3143 22.4165 53.3839 15.6299C50.4607 5.35306 40.6156 2.87391 36.0585 2.91894Z" fill="#7978B8" fill-opacity="0.2" shape-rendering="crispEdges"/>
</g>
<g filter="url(#filter2_d_3429_673)">
<path d="M67.8805 3.375H94.8805L68.818 60L53.443 34.3125L67.8805 3.375Z" fill="url(#paint2_linear_3429_673)" shape-rendering="crispEdges"/>
<path d="M67.8805 3.375H94.8805L68.818 60L53.443 34.3125L67.8805 3.375Z" fill="#7978B8" fill-opacity="0.2" shape-rendering="crispEdges"/>
</g>
<g filter="url(#filter3_d_3429_673)">
<path d="M31 59.625L3.99998 59.625L30.0625 2.99998L45.4375 28.6875L31 59.625Z" fill="url(#paint3_linear_3429_673)" shape-rendering="crispEdges"/>
<path d="M31 59.625L3.99998 59.625L30.0625 2.99998L45.4375 28.6875L31 59.625Z" fill="#7978B8" fill-opacity="0.2" shape-rendering="crispEdges"/>
</g>
<g filter="url(#filter4_d_3429_673)">
<path d="M100.88 3.375H127.881L101.818 60L86.443 34.3125L100.88 3.375Z" fill="url(#paint4_linear_3429_673)" shape-rendering="crispEdges"/>
<path d="M100.88 3.375H127.881L101.818 60L86.443 34.3125L100.88 3.375Z" fill="#7978B8" fill-opacity="0.2" shape-rendering="crispEdges"/>
</g>
<g filter="url(#filter5_d_3429_673)">
<path d="M107.818 59.625L119.256 34.6875L134.443 59.625H107.818Z" fill="url(#paint5_linear_3429_673)" shape-rendering="crispEdges"/>
</g>
<g filter="url(#filter6_d_3429_673)">
<path d="M63.25 59.625H50.875L42.3438 47.1563L48.0625 34.6875L63.25 59.625Z" fill="url(#paint6_linear_3429_673)" shape-rendering="crispEdges"/>
</g>
<g filter="url(#filter7_d_3429_673)">
<path d="M166.131 3.375H138.943L154.505 28.875L166.131 3.375Z" fill="url(#paint7_linear_3429_673)" shape-rendering="crispEdges"/>
<path d="M166.131 3.375H138.943L154.505 28.875L166.131 3.375Z" fill="#7978B8" fill-opacity="0.2" shape-rendering="crispEdges"/>
</g>
<path d="M28.768 75V69.112H30.696C31.912 69.112 32.824 69.544 32.824 70.824C32.824 72.056 31.912 72.624 30.696 72.624H29.704V75H28.768ZM29.704 71.88H30.592C31.44 71.88 31.904 71.528 31.904 70.824C31.904 70.112 31.44 69.864 30.592 69.864H29.704V71.88ZM31.992 75L30.52 72.384L31.208 71.84L33.032 75H31.992ZM35.653 75.112C34.453 75.112 33.509 74.256 33.509 72.808C33.509 71.376 34.493 70.488 35.517 70.488C36.677 70.488 37.309 71.328 37.309 72.576C37.309 72.76 37.293 72.936 37.269 73.048H34.413C34.485 73.888 35.013 74.384 35.773 74.384C36.165 74.384 36.493 74.264 36.821 74.056L37.141 74.648C36.733 74.92 36.229 75.112 35.653 75.112ZM34.397 72.408H36.509C36.509 71.648 36.173 71.216 35.533 71.216C34.981 71.216 34.493 71.64 34.397 72.408ZM38.3443 75V70.6H39.0963L39.1763 71.216H39.2003C39.6003 70.816 40.0563 70.488 40.6563 70.488C41.5923 70.488 42.0083 71.12 42.0083 72.232V75H41.0803V72.352C41.0803 71.584 40.8563 71.288 40.3443 71.288C39.9363 71.288 39.6562 71.496 39.2723 71.88V75H38.3443ZM44.8164 75.112C43.8324 75.112 43.4804 74.488 43.4804 73.568V71.336H42.8404V70.648L43.5284 70.6L43.6324 69.384H44.4004V70.6H45.5524V71.336H44.4004V73.576C44.4004 74.096 44.5924 74.376 45.0484 74.376C45.2004 74.376 45.3844 74.32 45.5204 74.264L45.6884 74.944C45.4404 75.024 45.1444 75.112 44.8164 75.112ZM47.3218 75.112C46.5698 75.112 46.0338 74.608 46.0338 73.832C46.0338 72.888 46.8338 72.4 48.6578 72.2C48.6498 71.688 48.4658 71.24 47.8258 71.24C47.3618 71.24 46.9218 71.456 46.5538 71.696L46.2098 71.064C46.6578 70.784 47.2818 70.488 47.9858 70.488C49.0818 70.488 49.5858 71.184 49.5858 72.36V75H48.8258L48.7538 74.504H48.7218C48.3218 74.848 47.8498 75.112 47.3218 75.112ZM47.6098 74.376C47.9938 74.376 48.2978 74.2 48.6578 73.864V72.792C47.3538 72.944 46.9218 73.272 46.9218 73.768C46.9218 74.2 47.2178 74.376 47.6098 74.376ZM51.8033 75.112C51.1313 75.112 50.8833 74.68 50.8833 73.968V68.632H51.8113V74.016C51.8113 74.264 51.9153 74.352 52.0273 74.352C52.0673 74.352 52.0993 74.352 52.1793 74.336L52.2993 75.032C52.1793 75.072 52.0353 75.112 51.8033 75.112ZM55.143 75V69.112H56.215L57.287 72.096C57.431 72.48 57.551 72.88 57.687 73.28H57.719C57.863 72.88 57.975 72.48 58.103 72.096L59.167 69.112H60.239V75H59.383V72.096C59.383 71.56 59.455 70.808 59.503 70.272H59.471L58.991 71.632L57.967 74.44H57.391L56.367 71.632L55.895 70.272H55.863C55.911 70.808 55.983 71.56 55.983 72.096V75H55.143ZM62.7436 75.112C61.9916 75.112 61.4556 74.608 61.4556 73.832C61.4556 72.888 62.2556 72.4 64.0796 72.2C64.0716 71.688 63.8876 71.24 63.2476 71.24C62.7836 71.24 62.3436 71.456 61.9756 71.696L61.6316 71.064C62.0796 70.784 62.7036 70.488 63.4076 70.488C64.5036 70.488 65.0076 71.184 65.0076 72.36V75H64.2476L64.1756 74.504H64.1436C63.7436 74.848 63.2716 75.112 62.7436 75.112ZM63.0316 74.376C63.4156 74.376 63.7196 74.2 64.0796 73.864V72.792C62.7756 72.944 62.3436 73.272 62.3436 73.768C62.3436 74.2 62.6396 74.376 63.0316 74.376ZM66.3052 75V70.6H67.0572L67.1372 71.216H67.1612C67.5612 70.816 68.0172 70.488 68.6172 70.488C69.5532 70.488 69.9692 71.12 69.9692 72.232V75H69.0412V72.352C69.0412 71.584 68.8172 71.288 68.3052 71.288C67.8972 71.288 67.6172 71.496 67.2332 71.88V75H66.3052ZM72.3374 75.112C71.5854 75.112 71.0494 74.608 71.0494 73.832C71.0494 72.888 71.8494 72.4 73.6734 72.2C73.6654 71.688 73.4814 71.24 72.8414 71.24C72.3774 71.24 71.9374 71.456 71.5694 71.696L71.2254 71.064C71.6734 70.784 72.2974 70.488 73.0014 70.488C74.0974 70.488 74.6014 71.184 74.6014 72.36V75H73.8414L73.7694 74.504H73.7374C73.3374 74.848 72.8654 75.112 72.3374 75.112ZM72.6254 74.376C73.0094 74.376 73.3134 74.2 73.6734 73.864V72.792C72.3694 72.944 71.9374 73.272 71.9374 73.768C71.9374 74.2 72.2334 74.376 72.6254 74.376ZM77.4109 76.976C76.3549 76.976 75.5869 76.584 75.5869 75.824C75.5869 75.448 75.8189 75.104 76.2269 74.864V74.824C75.9949 74.68 75.8269 74.448 75.8269 74.088C75.8269 73.744 76.0669 73.448 76.3149 73.272V73.24C76.0189 73.016 75.7309 72.592 75.7309 72.072C75.7309 71.072 76.5309 70.488 77.4349 70.488C77.6909 70.488 77.9149 70.536 78.0829 70.6H79.6349V71.296H78.8029C78.9709 71.472 79.0909 71.76 79.0909 72.096C79.0909 73.064 78.3629 73.608 77.4349 73.608C77.2429 73.608 77.0189 73.568 76.8189 73.48C76.6829 73.6 76.5789 73.728 76.5789 73.944C76.5789 74.2 76.7629 74.368 77.3149 74.368H78.1309C79.1709 74.368 79.7149 74.688 79.7149 75.44C79.7149 76.288 78.8189 76.976 77.4109 76.976ZM77.4349 73.016C77.8909 73.016 78.2669 72.656 78.2669 72.072C78.2669 71.48 77.8989 71.144 77.4349 71.144C76.9789 71.144 76.6109 71.48 76.6109 72.072C76.6109 72.656 76.9869 73.016 77.4349 73.016ZM77.5469 76.368C78.3149 76.368 78.8189 75.992 78.8189 75.592C78.8189 75.224 78.5309 75.104 77.9949 75.104H77.3309C77.1229 75.104 76.9309 75.088 76.7469 75.04C76.4829 75.24 76.3709 75.464 76.3709 75.688C76.3709 76.112 76.8189 76.368 77.5469 76.368ZM82.1999 75.112C80.9999 75.112 80.0559 74.256 80.0559 72.808C80.0559 71.376 81.0399 70.488 82.0639 70.488C83.2239 70.488 83.8559 71.328 83.8559 72.576C83.8559 72.76 83.8399 72.936 83.8159 73.048H80.9599C81.0319 73.888 81.5599 74.384 82.3199 74.384C82.7119 74.384 83.0399 74.264 83.3679 74.056L83.6879 74.648C83.2799 74.92 82.7759 75.112 82.1999 75.112ZM80.9439 72.408H83.0559C83.0559 71.648 82.7199 71.216 82.0799 71.216C81.5279 71.216 81.0399 71.64 80.9439 72.408ZM84.8911 75V70.6H85.6431L85.7231 71.216H85.7471C86.1231 70.816 86.5631 70.488 87.1071 70.488C87.7631 70.488 88.1311 70.792 88.3151 71.296C88.7551 70.84 89.2031 70.488 89.7551 70.488C90.6751 70.488 91.0991 71.12 91.0991 72.232V75H90.1791V72.352C90.1791 71.584 89.9471 71.288 89.4511 71.288C89.1471 71.288 88.8271 71.48 88.4591 71.88V75H87.5391V72.352C87.5391 71.584 87.3071 71.288 86.8031 71.288C86.5071 71.288 86.1711 71.48 85.8191 71.88V75H84.8911ZM94.278 75.112C93.078 75.112 92.134 74.256 92.134 72.808C92.134 71.376 93.118 70.488 94.142 70.488C95.302 70.488 95.934 71.328 95.934 72.576C95.934 72.76 95.918 72.936 95.894 73.048H93.038C93.11 73.888 93.638 74.384 94.398 74.384C94.79 74.384 95.118 74.264 95.446 74.056L95.766 74.648C95.358 74.92 94.854 75.112 94.278 75.112ZM93.022 72.408H95.134C95.134 71.648 94.798 71.216 94.158 71.216C93.606 71.216 93.118 71.64 93.022 72.408ZM96.9693 75V70.6H97.7213L97.8013 71.216H97.8253C98.2253 70.816 98.6813 70.488 99.2813 70.488C100.217 70.488 100.633 71.12 100.633 72.232V75H99.7053V72.352C99.7053 71.584 99.4813 71.288 98.9693 71.288C98.5613 71.288 98.2812 71.496 97.8973 71.88V75H96.9693ZM103.441 75.112C102.457 75.112 102.105 74.488 102.105 73.568V71.336H101.465V70.648L102.153 70.6L102.257 69.384H103.025V70.6H104.177V71.336H103.025V73.576C103.025 74.096 103.217 74.376 103.673 74.376C103.825 74.376 104.009 74.32 104.145 74.264L104.313 74.944C104.065 75.024 103.769 75.112 103.441 75.112ZM108.698 75.112C107.882 75.112 107.138 74.792 106.602 74.248L107.146 73.6C107.562 74.024 108.146 74.296 108.714 74.296C109.418 74.296 109.818 73.968 109.818 73.464C109.818 72.928 109.418 72.76 108.874 72.528L108.058 72.168C107.49 71.936 106.866 71.488 106.866 70.632C106.866 69.704 107.674 69.008 108.794 69.008C109.49 69.008 110.138 69.296 110.578 69.752L110.098 70.336C109.73 70.016 109.314 69.816 108.794 69.816C108.194 69.816 107.81 70.104 107.81 70.568C107.81 71.072 108.282 71.264 108.762 71.464L109.57 71.8C110.266 72.096 110.77 72.528 110.77 73.392C110.77 74.336 109.986 75.112 108.698 75.112ZM112.005 76.84C111.781 76.84 111.605 76.808 111.453 76.752L111.629 76.032C111.709 76.064 111.837 76.096 111.949 76.096C112.421 76.096 112.709 75.744 112.869 75.272L112.957 74.968L111.213 70.6H112.157L112.965 72.864C113.101 73.256 113.229 73.696 113.373 74.112H113.413C113.517 73.704 113.637 73.272 113.749 72.864L114.461 70.6H115.357L113.741 75.272C113.397 76.208 112.933 76.84 112.005 76.84ZM117.349 75.112C116.741 75.112 116.117 74.856 115.693 74.504L116.125 73.904C116.517 74.208 116.893 74.408 117.373 74.408C117.893 74.408 118.141 74.152 118.141 73.816C118.141 73.424 117.645 73.24 117.173 73.064C116.581 72.84 115.933 72.528 115.933 71.776C115.933 71.04 116.525 70.488 117.509 70.488C118.093 70.488 118.581 70.728 118.933 71.008L118.501 71.576C118.197 71.36 117.885 71.192 117.525 71.192C117.037 71.192 116.813 71.432 116.813 71.736C116.813 72.112 117.237 72.256 117.725 72.432C118.341 72.664 119.013 72.944 119.013 73.768C119.013 74.512 118.429 75.112 117.349 75.112ZM121.254 75.112C120.27 75.112 119.918 74.488 119.918 73.568V71.336H119.278V70.648L119.966 70.6L120.07 69.384H120.838V70.6H121.99V71.336H120.838V73.576C120.838 74.096 121.03 74.376 121.486 74.376C121.638 74.376 121.822 74.32 121.958 74.264L122.126 74.944C121.878 75.024 121.582 75.112 121.254 75.112ZM124.622 75.112C123.422 75.112 122.478 74.256 122.478 72.808C122.478 71.376 123.462 70.488 124.486 70.488C125.646 70.488 126.278 71.328 126.278 72.576C126.278 72.76 126.262 72.936 126.238 73.048H123.382C123.454 73.888 123.982 74.384 124.742 74.384C125.134 74.384 125.462 74.264 125.79 74.056L126.11 74.648C125.702 74.92 125.198 75.112 124.622 75.112ZM123.366 72.408H125.478C125.478 71.648 125.142 71.216 124.502 71.216C123.95 71.216 123.462 71.64 123.366 72.408ZM127.313 75V70.6H128.065L128.145 71.216H128.169C128.545 70.816 128.985 70.488 129.529 70.488C130.185 70.488 130.553 70.792 130.737 71.296C131.177 70.84 131.625 70.488 132.177 70.488C133.097 70.488 133.521 71.12 133.521 72.232V75H132.601V72.352C132.601 71.584 132.369 71.288 131.873 71.288C131.569 71.288 131.249 71.48 130.881 71.88V75H129.961V72.352C129.961 71.584 129.729 71.288 129.225 71.288C128.929 71.288 128.593 71.48 128.241 71.88V75H127.313Z" fill="#111321"/>
<defs>
<filter id="filter0_d_3429_673" x="117.876" y="3.33545" width="41.7332" height="64.5369" filterUnits="userSpaceOnUse" color-interpolation-filters="sRGB">
<feFlood flood-opacity="0" result="BackgroundImageFix"/>
<feColorMatrix in="SourceAlpha" type="matrix" values="0 0 0 0 0 0 0 0 0 0 0 0 0 0 0 0 0 0 127 0" result="hardAlpha"/>
<feOffset dy="4"/>
<feGaussianBlur stdDeviation="2"/>
<feComposite in2="hardAlpha" operator="out"/>
<feColorMatrix type="matrix" values="0 0 0 0 0 0 0 0 0 0 0 0 0 0 0 0 0 0 0.25 0"/>
<feBlend mode="normal" in2="BackgroundImageFix" result="effect1_dropShadow_3429_673"/>
<feBlend mode="normal" in="SourceGraphic" in2="effect1_dropShadow_3429_673" result="shape"/>
</filter>
<filter id="filter1_d_3429_673" x="32.0585" y="2.91846" width="25.9729" height="33.5352" filterUnits="userSpaceOnUse" color-interpolation-filters="sRGB">
<feFlood flood-opacity="0" result="BackgroundImageFix"/>
<feColorMatrix in="SourceAlpha" type="matrix" values="0 0 0 0 0 0 0 0 0 0 0 0 0 0 0 0 0 0 127 0" result="hardAlpha"/>
<feOffset dy="4"/>
<feGaussianBlur stdDeviation="2"/>
<feComposite in2="hardAlpha" operator="out"/>
<feColorMatrix type="matrix" values="0 0 0 0 0 0 0 0 0 0 0 0 0 0 0 0 0 0 0.25 0"/>
<feBlend mode="normal" in2="BackgroundImageFix" result="effect1_dropShadow_3429_673"/>
<feBlend mode="normal" in="SourceGraphic" in2="effect1_dropShadow_3429_673" result="shape"/>
</filter>
<filter id="filter2_d_3429_673" x="49.443" y="3.375" width="49.4375" height="64.625" filterUnits="userSpaceOnUse" color-interpolation-filters="sRGB">
<feFlood flood-opacity="0" result="BackgroundImageFix"/>
<feColorMatrix in="SourceAlpha" type="matrix" values="0 0 0 0 0 0 0 0 0 0 0 0 0 0 0 0 0 0 127 0" result="hardAlpha"/>
<feOffset dy="4"/>
<feGaussianBlur stdDeviation="2"/>
<feComposite in2="hardAlpha" operator="out"/>
<feColorMatrix type="matrix" values="0 0 0 0 0 0 0 0 0 0 0 0 0 0 0 0 0 0 0.25 0"/>
<feBlend mode="normal" in2="BackgroundImageFix" result="effect1_dropShadow_3429_673"/>
<feBlend mode="normal" in="SourceGraphic" in2="effect1_dropShadow_3429_673" result="shape"/>
</filter>
<filter id="filter3_d_3429_673" x="-1.52588e-05" y="3" width="49.4375" height="64.625" filterUnits="userSpaceOnUse" color-interpolation-filters="sRGB">
<feFlood flood-opacity="0" result="BackgroundImageFix"/>
<feColorMatrix in="SourceAlpha" type="matrix" values="0 0 0 0 0 0 0 0 0 0 0 0 0 0 0 0 0 0 127 0" result="hardAlpha"/>
<feOffset dy="4"/>
<feGaussianBlur stdDeviation="2"/>
<feComposite in2="hardAlpha" operator="out"/>
<feColorMatrix type="matrix" values="0 0 0 0 0 0 0 0 0 0 0 0 0 0 0 0 0 0 0.25 0"/>
<feBlend mode="normal" in2="BackgroundImageFix" result="effect1_dropShadow_3429_673"/>
<feBlend mode="normal" in="SourceGraphic" in2="effect1_dropShadow_3429_673" result="shape"/>
</filter>
<filter id="filter4_d_3429_673" x="82.443" y="3.375" width="49.4375" height="64.625" filterUnits="userSpaceOnUse" color-interpolation-filters="sRGB">
<feFlood flood-opacity="0" result="BackgroundImageFix"/>
<feColorMatrix in="SourceAlpha" type="matrix" values="0 0 0 0 0 0 0 0 0 0 0 0 0 0 0 0 0 0 127 0" result="hardAlpha"/>
<feOffset dy="4"/>
<feGaussianBlur stdDeviation="2"/>
<feComposite in2="hardAlpha" operator="out"/>
<feColorMatrix type="matrix" values="0 0 0 0 0 0 0 0 0 0 0 0 0 0 0 0 0 0 0.25 0"/>
<feBlend mode="normal" in2="BackgroundImageFix" result="effect1_dropShadow_3429_673"/>
<feBlend mode="normal" in="SourceGraphic" in2="effect1_dropShadow_3429_673" result="shape"/>
</filter>
<filter id="filter5_d_3429_673" x="103.818" y="34.6875" width="34.625" height="32.9375" filterUnits="userSpaceOnUse" color-interpolation-filters="sRGB">
<feFlood flood-opacity="0" result="BackgroundImageFix"/>
<feColorMatrix in="SourceAlpha" type="matrix" values="0 0 0 0 0 0 0 0 0 0 0 0 0 0 0 0 0 0 127 0" result="hardAlpha"/>
<feOffset dy="4"/>
<feGaussianBlur stdDeviation="2"/>
<feComposite in2="hardAlpha" operator="out"/>
<feColorMatrix type="matrix" values="0 0 0 0 0 0 0 0 0 0 0 0 0 0 0 0 0 0 0.25 0"/>
<feBlend mode="normal" in2="BackgroundImageFix" result="effect1_dropShadow_3429_673"/>
<feBlend mode="normal" in="SourceGraphic" in2="effect1_dropShadow_3429_673" result="shape"/>
</filter>
<filter id="filter6_d_3429_673" x="38.3438" y="34.6875" width="28.9063" height="32.9375" filterUnits="userSpaceOnUse" color-interpolation-filters="sRGB">
<feFlood flood-opacity="0" result="BackgroundImageFix"/>
<feColorMatrix in="SourceAlpha" type="matrix" values="0 0 0 0 0 0 0 0 0 0 0 0 0 0 0 0 0 0 127 0" result="hardAlpha"/>
<feOffset dy="4"/>
<feGaussianBlur stdDeviation="2"/>
<feComposite in2="hardAlpha" operator="out"/>
<feColorMatrix type="matrix" values="0 0 0 0 0 0 0 0 0 0 0 0 0 0 0 0 0 0 0.25 0"/>
<feBlend mode="normal" in2="BackgroundImageFix" result="effect1_dropShadow_3429_673"/>
<feBlend mode="normal" in="SourceGraphic" in2="effect1_dropShadow_3429_673" result="shape"/>
</filter>
<filter id="filter7_d_3429_673" x="134.943" y="3.375" width="35.1875" height="33.5" filterUnits="userSpaceOnUse" color-interpolation-filters="sRGB">
<feFlood flood-opacity="0" result="BackgroundImageFix"/>
<feColorMatrix in="SourceAlpha" type="matrix" values="0 0 0 0 0 0 0 0 0 0 0 0 0 0 0 0 0 0 127 0" result="hardAlpha"/>
<feOffset dy="4"/>
<feGaussianBlur stdDeviation="2"/>
<feComposite in2="hardAlpha" operator="out"/>
<feColorMatrix type="matrix" values="0 0 0 0 0 0 0 0 0 0 0 0 0 0 0 0 0 0 0.25 0"/>
<feBlend mode="normal" in2="BackgroundImageFix" result="effect1_dropShadow_3429_673"/>
<feBlend mode="normal" in="SourceGraphic" in2="effect1_dropShadow_3429_673" result="shape"/>
</filter>
<linearGradient id="paint0_linear_3429_673" x1="139.006" y1="3.37759" x2="138.559" y2="59.8511" gradientUnits="userSpaceOnUse">
<stop stop-color="#4F5FF5"/>
<stop offset="1" stop-color="#5111D9" stop-opacity="0.41"/>
</linearGradient>
<linearGradient id="paint1_linear_3429_673" x1="55.4512" y1="22.23" x2="33.634" y2="6.22352" gradientUnits="userSpaceOnUse">
<stop stop-color="#4F5FF5"/>
<stop offset="1" stop-color="#5111D9" stop-opacity="0.41"/>
</linearGradient>
<linearGradient id="paint2_linear_3429_673" x1="74.1617" y1="3.375" x2="74.1617" y2="60" gradientUnits="userSpaceOnUse">
<stop stop-color="#4F5FF5"/>
<stop offset="1" stop-color="#5111D9" stop-opacity="0.41"/>
</linearGradient>
<linearGradient id="paint3_linear_3429_673" x1="24.7187" y1="59.625" x2="24.7187" y2="2.99998" gradientUnits="userSpaceOnUse">
<stop stop-color="#4F5FF5"/>
<stop offset="1" stop-color="#5111D9" stop-opacity="0.41"/>
</linearGradient>
<linearGradient id="paint4_linear_3429_673" x1="107.162" y1="3.375" x2="107.162" y2="60" gradientUnits="userSpaceOnUse">
<stop stop-color="#4F5FF5"/>
<stop offset="1" stop-color="#5111D9" stop-opacity="0.41"/>
</linearGradient>
<linearGradient id="paint5_linear_3429_673" x1="121.131" y1="34.6875" x2="121.131" y2="59.625" gradientUnits="userSpaceOnUse">
<stop stop-color="#4F5FF5"/>
<stop offset="1" stop-color="#5111D9" stop-opacity="0.41"/>
</linearGradient>
<linearGradient id="paint6_linear_3429_673" x1="52.7969" y1="34.6875" x2="52.7969" y2="59.625" gradientUnits="userSpaceOnUse">
<stop stop-color="#4F5FF5"/>
<stop offset="1" stop-color="#5111D9" stop-opacity="0.41"/>
</linearGradient>
<linearGradient id="paint7_linear_3429_673" x1="152.537" y1="3.375" x2="152.537" y2="28.875" gradientUnits="userSpaceOnUse">
<stop stop-color="#4F5FF5"/>
<stop offset="1" stop-color="#5111D9" stop-opacity="0.41"/>
</linearGradient>
</defs>
</svg>
