<svg width="1024" height="1024" viewBox="0 0 1024 1024" fill="none" xmlns="http://www.w3.org/2000/svg">
<rect width="1024" height="1024" fill="white"/>
<path d="M378.616 171.941C317.714 171.161 263.775 220.538 258.273 281.1C256.133 301.007 257.413 314.692 257.093 334.879C257.233 452.62 257.273 672.297 257.013 732.158C257.773 763.589 271.918 799.422 295.727 820.73C361.77 884.792 477.01 850.16 496.817 760.508C496.837 760.388 496.877 760.248 496.877 760.128C507.081 685.562 498.238 461.743 501.039 334.979C500.579 310.73 502.699 294.404 498.178 271.596C488.454 214.997 436.696 171.381 379.196 171.941H378.596H378.616Z" fill="url(#paint0_linear_148_6156)"/>
<path d="M760.885 269.555C734.216 141.11 562.135 133.307 525.323 260.072C519.561 281.399 519.541 304.247 519.5 326.035C519.541 394.499 519.621 462.543 519.621 539.89C519.54 548.633 520.321 562.458 524.322 567.2C529.484 574.482 539.528 568.84 546.03 564.619C554.973 558.637 563.156 552.855 574.34 544.692C586.564 535.749 599.969 525.425 612.553 515.301C709.547 434.733 777.031 354.285 761.005 270.195L760.885 269.595V269.555Z" fill="#FF0606"/>
<path d="M643.275 855C711.201 855 766.265 799.935 766.265 732.009C766.265 664.084 711.201 609.019 643.275 609.019C575.349 609.019 520.284 664.084 520.284 732.009C520.284 799.935 575.349 855 643.275 855Z" fill="#FFC247"/>
<defs>
<linearGradient id="paint0_linear_148_6156" x1="256.993" y1="512.761" x2="501.939" y2="512.761" gradientUnits="userSpaceOnUse">
<stop stop-color="#4F5FF5"/>
<stop offset="1" stop-color="#727FFF"/>
</linearGradient>
</defs>
</svg>
